0
SECTION
2
HEADER
9
$INSUNITS
70
4
9
$ACADVER
1
AC1014
9
$HANDSEED
5
FFFF
0
ENDSEC
0
SECTION
2
TABLES
0
TABLE
2
VPORT
5
8
100
AcDbSymbolTable
0
ENDTAB
0
TABLE
2
LTYPE
5
5
100
AcDbSymbolTable
0
LTYPE
5
14
100
AcDbSymbolTableRecord
100
AcDbLinetypeTableRecord
2
BYBLOCK
70
0
0
LTYPE
5
15
100
AcDbSymbolTableRecord
100
AcDbLinetypeTableRecord
2
BYLAYER
70
0
0
ENDTAB
0
TABLE
2
LAYER
5
2
100
AcDbSymbolTable
70
2
0
LAYER
5
50
100
AcDbSymbolTableRecord
100
AcDbLayerTableRecord
2
0
70
0
6
CONTINUOUS
0
ENDTAB
0
TABLE
2
STYLE
5
3
100
AcDbSymbolTable
70
1
0
STYLE
5
11
100
AcDbSymbolTableRecord
100
AcDbTextStyleTableRecord
2
STANDARD
70
0
0
ENDTAB
0
TABLE
2
VIEW
5
6
100
AcDbSymbolTable
70
0
0
ENDTAB
0
TABLE
2
UCS
5
7
100
AcDbSymbolTable
70
0
0
ENDTAB
0
TABLE
2
APPID
5
9
100
AcDbSymbolTable
70
2
0
APPID
5
12
100
AcDbSymbolTableRecord
100
AcDbRegAppTableRecord
2
ACAD
70
0
0
ENDTAB
0
TABLE
2
DIMSTYLE
5
A
100
AcDbSymbolTable
70
1
0
ENDTAB
0
TABLE
2
BLOCK_RECORD
5
1
100
AcDbSymbolTable
70
1
0
BLOCK_RECORD
5
1F
100
AcDbSymbolTableRecord
100
AcDbBlockTableRecord
2
*MODEL_SPACE
0
BLOCK_RECORD
5
1B
100
AcDbSymbolTableRecord
100
AcDbBlockTableRecord
2
*PAPER_SPACE
0
ENDTAB
0
ENDSEC
0
SECTION
2
BLOCKS
0
BLOCK
5
20
100
AcDbEntity
100
AcDbBlockBegin
2
*MODEL_SPACE
0
ENDBLK
5
21
100
AcDbEntity
100
AcDbBlockEnd
0
BLOCK
5
1C
100
AcDbEntity
100
AcDbBlockBegin
2
*PAPER_SPACE
0
ENDBLK
5
1D
100
AcDbEntity
100
AcDbBlockEnd
0
ENDSEC
0
SECTION
2
ENTITIES
0
LWPOLYLINE
5
100
100
AcDbEntity
8
0
100
AcDbPolyline
90
8
70
1
43
0.0
10
-147
20
7.7370094031060788
42
-0.42625039789448138
10
-147.52045327905589
20
7.2374265282511274
10
-161.50734201871981
20
7.2374265282519898
42
-0.40991906388670363
10
-162.00000000000003
20
7.7373726201069903
10
-162.00000000000006
20
21.737372620106896
42
-0.4142135778940047
10
-161.49999997350415
20
22.237372620106903
10
-147.52779904832241
20
22.237374354552575
42
-0.43060325514865294
10
-147.00000000000003
20
21.738145161521771
0
ARC
5
101
100
AcDbEntity
8
0
100
AcDbCircle
10
117.50000000000007
20
7.7374265282511274
30
0
40
0.50000000000004263
210
0
220
0
230
1
100
AcDbArc
50
180
51
270
0
LINE
5
102
100
AcDbEntity
8
0
100
AcDbLine
10
117.00000000000003
20
7.7374265282511345
30
0
11
116.99999999999946
21
26.737426528243912
31
0
0
ARC
5
103
100
AcDbEntity
8
0
100
AcDbCircle
10
117.49999999999949
20
26.73742652825112
30
0
40
0.49999999999998934
210
0
220
-0
230
1
100
AcDbArc
50
0
51
180
0
LINE
5
104
100
AcDbEntity
8
0
100
AcDbLine
10
117.99999999999947
20
26.737426529637162
30
0
11
117.99999999999947
21
22.59241382248814
31
0
0
ARC
5
105
100
AcDbEntity
8
0
100
AcDbCircle
10
118.47850947239448
20
22.737426528235737
30
0
40
0.49999999999997691
210
0
220
0
230
1
100
AcDbArc
50
196.85947737750934
51
270.00044787277795
0
LINE
5
106
100
AcDbEntity
8
0
100
AcDbLine
10
118.47851338082178
20
22.237426528251035
30
0
11
130.49997589233618
21
22.237426528251056
31
0
0
ARC
5
107
100
AcDbEntity
8
0
100
AcDbCircle
10
130.50000163700892
20
22.737426527588287
30
0
40
0.50000000000001876
210
0
220
0
230
1
100
AcDbArc
50
-90.002950122187258
51
0.14661497691911132
0
LINE
5
108
100
AcDbEntity
8
0
100
AcDbLine
10
130.99999999999952
20
22.738705983231959
30
0
11
131.00000000000279
21
26.737426042027082
31
0
0
ARC
5
109
100
AcDbEntity
8
0
100
AcDbCircle
10
131.50000000000256
20
26.737426528251103
30
0
40
0.50000000000000722
210
0
220
-0
230
1
100
AcDbArc
50
0
51
180.00005571159261
0
LINE
5
110
100
AcDbEntity
8
0
100
AcDbLine
10
132.00000000000256
20
26.737426533234533
30
0
11
132.00000000000006
21
7.7374265282511345
31
0
0
ARC
5
111
100
AcDbEntity
8
0
100
AcDbCircle
10
131.50000000000009
20
7.7374265282511274
30
0
40
0.50000000000003375
210
0
220
0
230
1
100
AcDbArc
50
-90
51
0
0
LINE
5
112
100
AcDbEntity
8
0
100
AcDbLine
10
131.50000000000009
20
7.2374265282510937
30
0
11
117.50000000000007
21
7.2374265282510919
31
0
0
LWPOLYLINE
5
113
100
AcDbEntity
8
0
100
AcDbPolyline
90
8
70
1
43
0.0
10
179.00000000000006
20
11.000000000000039
10
181.99999999999994
20
11.000000000000016
42
0.41421356237307094
10
182.99999999999997
20
12.000000000000075
10
183
20
17.999999999999968
42
0.41421356237313534
10
181.99999999999994
20
19.000000000000007
10
179.00000000000009
20
19.000000000000018
42
0.41421356237312495
10
177.99999999999997
20
17.999999999999968
10
178
20
12.000000000000071
42
0.41421356237310542
0
LWPOLYLINE
5
114
100
AcDbEntity
8
0
100
AcDbPolyline
90
8
70
1
43
0.0
10
-183
20
17.999999999999968
42
-0.41421356237312495
10
-182
20
19.000000000000007
10
-179.00000000000009
20
19.000000000000014
42
-0.41421356237312495
10
-178
20
17.999999999999968
10
-177.99999999999997
20
12.000000000000071
42
-0.41421356237310542
10
-179.00000000000006
20
11.000000000000039
10
-182
20
11.000000000000014
42
-0.41421356237304624
10
-183
20
12.000000000000075
0
LWPOLYLINE
5
115
100
AcDbEntity
8
0
100
AcDbPolyline
90
12
70
1
43
0.0
10
-173
20
25.000000000000018
10
-173
20
21.500000000000018
10
-171
20
21.500000000000018
10
-171
20
23.000000000000011
10
-169.00000000000003
20
23.000000000000011
10
-169.00000000000003
20
7.0000000000000151
10
-171
20
7.0000000000000187
10
-171
20
8.500000000000016
10
-173
20
8.500000000000016
10
-173
20
5.0000000000000178
10
-167.00000000000003
20
5.0000000000000178
10
-167.00000000000003
20
25.000000000000014
0
LWPOLYLINE
5
116
100
AcDbEntity
8
0
100
AcDbPolyline
90
12
70
1
43
0.0
10
167.00000000000003
20
25.000000000000014
10
167.00000000000003
20
5.0000000000000178
10
172.99999999999997
20
5.0000000000000178
10
172.99999999999997
20
8.500000000000016
10
171
20
8.500000000000016
10
171
20
7.0000000000000187
10
169
20
7.0000000000000151
10
169
20
23.000000000000011
10
171
20
23.000000000000011
10
171
20
21.500000000000018
10
172.99999999999997
20
21.500000000000018
10
172.99999999999997
20
25.000000000000018
0
ARC
5
117
100
AcDbEntity
8
0
100
AcDbCircle
10
-131.50004257034939
20
7.7374265282510013
30
0
40
0.5000000000000413
210
0
220
0
230
1
100
AcDbArc
50
179.25233109870183
51
270.00004677512572
0
LINE
5
118
100
AcDbEntity
8
0
100
AcDbLine
10
-132.00000000000003
20
7.7439509851003052
30
0
11
-132.00000000000003
21
26.737421895872082
31
0
0
ARC
5
119
100
AcDbEntity
8
0
100
AcDbCircle
10
-131.4999999999267
20
26.737426528251124
30
0
40
0.50000000009652568
210
0
220
-0
230
1
100
AcDbArc
50
0.00052785310882477927
51
180.00053055283232
0
LINE
5
120
100
AcDbEntity
8
0
100
AcDbLine
10
-130.99999999985138
20
26.737431134638449
30
0
11
-130.99999999985138
21
22.737346689446909
31
0
0
ARC
5
121
100
AcDbEntity
8
0
100
AcDbCircle
10
-130.5000000038637
20
22.737346689446909
30
0
40
0.49999999598767886
210
0
220
0
230
1
100
AcDbArc
50
180
51
271.02391856863522
0
LINE
5
122
100
AcDbEntity
8
0
100
AcDbLine
10
-130.49106510431437
20
22.237426528251135
30
0
11
-118.50078113320075
21
22.237426528251135
31
0
0
ARC
5
123
100
AcDbEntity
8
0
100
AcDbCircle
10
-118.50000122531704
20
22.737427146093868
30
0
40
0.50000122609791631
210
0
220
0
230
1
100
AcDbArc
50
-90.089370677376976
51
0.0028814317938334485
0
LINE
5
124
100
AcDbEntity
8
0
100
AcDbLine
10
-117.9999999998514
20
22.73745229139109
30
0
11
-117.9999999998514
21
26.737426539953336
31
0
0
ARC
5
125
100
AcDbEntity
8
0
100
AcDbCircle
10
-117.49999999985138
20
26.737426528251163
30
0
40
0.49999999999999778
210
0
220
-0
230
1
100
AcDbArc
50
0.0013970596388908872
51
179.99999879258175
0
LINE
5
126
100
AcDbEntity
8
0
100
AcDbLine
10
-117.00000000000003
20
26.737438719897249
30
0
11
-117.00000000000006
21
7.9017978122059063
31
0
0
ARC
5
127
100
AcDbEntity
8
0
100
AcDbCircle
10
-117.4722102732712
20
7.7374279310925873
30
0
40
0.50000000000005151
210
0
220
0
230
1
100
AcDbArc
50
-89.999999784434735
51
19.192302034225989
0
LINE
5
128
100
AcDbEntity
8
0
100
AcDbLine
10
-117.47221027139004
20
7.2374279310925358
30
0
11
-131.50004216215942
21
7.237426528251131
31
0
0
LWPOLYLINE
5
129
100
AcDbEntity
8
0
100
AcDbPolyline
90
8
70
1
43
0.0
10
162
20
7.7410641772195987
42
-0.41331847544366851
10
161.50520647887765
20
7.2374265282510919
10
147.49408019400559
20
7.2374265282510937
42
-0.38875975820551417
10
147.00000000000006
20
7.6979707522619556
10
147.00000000000006
20
21.736996651207896
42
-0.41114790094630715
10
147.49429844839375
20
22.237426528251092
10
161.50498822448952
20
22.237426528251113
42
-0.40713636311512225
10
162.00000000000003
20
21.744625519834038
0
LWPOLYLINE
5
130
100
AcDbEntity
8
0
100
AcDbPolyline
90
20
70
1
43
0.0
10
-39.923219963733487
20
240.73742652825115
10
39.910159640193768
20
240.73742652825118
42
-0.26351262245373008
10
117.09586202775537
20
197.0231408139654
42
0.068867860020301472
10
131.70775555251592
20
178.86840754294568
42
-0.2066723132099296
10
159.99346983823034
20
113.36003449968096
10
159.99346983823034
20
40.737426528251092
42
0.41421356237309503
10
169.99346983823034
20
30.737426528251088
10
179.99346983823006
20
30.737426528251138
42
-0.4142135623730876
10
189.99346983823011
20
20.737426528251355
10
189.99346983823034
20
11.167347629850958
42
-0.36670578649853075
10
182.35212779513805
20
0.73742652825109056
10
-180.00653563700308
20
0.73742652825115718
42
-0.4139070991416105
10
-190.00653016177529
20
10.726962087352518
10
-190.00653016177529
20
20.737426528251138
42
-0.4142135623730932
10
-180.00653016177529
20
30.737426528251138
10
-170.00653016177307
20
30.737426528251138
42
0.41421356237309503
10
-160.00653016177307
20
40.737426528251142
10
-160.00653016177594
20
113.36003449967224
42
-0.20667231320995078
10
-131.72081587605851
20
178.86840754294295
42
0.068867860020313074
10
-117.10892235129504
20
197.02314081396537
42
-0.26351262245372942
0
LWPOLYLINE
5
131
100
AcDbEntity
8
0
100
AcDbPolyline
90
12
70
1
43
0.0
10
-39.634283305227825
20
267.13579221118368
42
-0.41421356237309503
10
-39.134283305227854
20
267.63579221118368
10
-25.634283305227932
20
267.63579221118368
42
-0.41421356237309503
10
-25.13428330522796
20
267.13579221118368
10
-25.13428330522796
20
264.13579221118374
42
0.99999999999999989
10
-24.134283305228017
20
264.13579221118374
10
-24.134283305227875
20
268.13579221118363
42
0.41421356237310281
10
-24.634283305227989
20
268.63579221118374
10
-40.134283305227939
20
268.63579221118374
42
0.41421356237310542
10
-40.634283305228053
20
268.13579221118363
10
-40.63428330522791
20
264.13579221118374
42
0.99999999999999989
10
-39.634283305227825
20
264.13579221118374
0
LWPOLYLINE
5
132
100
AcDbEntity
8
0
100
AcDbPolyline
90
12
70
1
43
0.0
10
166.36571669477092
20
268.63579221118391
42
-0.41421356237313667
10
166.86571669477104
20
268.1357922111838
10
166.8657166947709
20
264.13579221118374
42
-0.99999999999999989
10
165.86571669477095
20
264.13579221118374
10
165.86571669477081
20
267.13579221118385
42
0.41421356237309503
10
165.36571669477084
20
267.6357922111838
10
151.86571669477127
20
267.6357922111838
42
0.41421356237309503
10
151.36571669477127
20
267.13579221118385
10
151.36571669477127
20
264.13579221118374
42
-0.99999999999999989
10
150.36571669477132
20
264.13579221118374
10
150.36571669477138
20
268.1357922111838
42
-0.41421356237311585
10
150.86571669477132
20
268.63579221118374
0
LWPOLYLINE
5
133
100
AcDbEntity
8
0
100
AcDbPolyline
90
12
70
1
43
0.0
10
-25.13428330522796
20
250.13579221118337
42
-0.99999999999999989
10
-24.134283305228017
20
250.13579221118337
10
-24.134283305228049
20
246.13579221118331
42
-0.41421356237311846
10
-24.634283305227989
20
245.63579221118334
10
-40.134283305227939
20
245.63579221118331
42
-0.41421356237312101
10
-40.63428330522791
20
246.13579221118331
10
-40.634283305227768
20
250.13579221118337
42
-0.99999999999999989
10
-39.634283305227825
20
250.13579221118337
10
-39.632188131323858
20
248.13390792437389
42
0.39245762660600148
10
-39.169054844639589
20
247.63579221118334
10
-25.643500967170887
20
246.63579221118337
42
0.41434668260304253
10
-25.143289671359636
20
247.13580811021674
0
LWPOLYLINE
5
134
100
AcDbEntity
8
0
100
AcDbPolyline
90
12
70
1
43
0.0
10
150.36571669477132
20
250.13579221118337
10
150.36571669477132
20
246.13579221118346
42
0.41421356237311585
10
150.86571669477132
20
245.63579221118334
10
166.36571669477092
20
245.63579221118334
42
0.41421356237313667
10
166.86571669477104
20
246.13579221118346
10
166.86571669477104
20
250.13579221118337
42
0.99999999999999989
10
165.86571669477081
20
250.13579221118337
10
165.86441545420308
20
248.13410818707624
42
-0.3925876816137725
10
165.4012549527726
20
247.63579221118334
10
151.86571669477127
20
246.63579221118343
42
-0.41421356237309503
10
151.36571669477127
20
247.1357922111834
10
151.36571669477127
20
250.13579221118337
42
0.99999999999999989
0
LWPOLYLINE
5
135
100
AcDbEntity
8
0
100
AcDbPolyline
90
48
70
1
43
0.0
10
176.96927008536466
20
248.48934560177682
42
-0.19891236737960571
10
177.32282347595785
20
248.63579221118346
10
181.11571669477129
20
248.63579221118346
42
0.99999999999999989
10
181.11571669477129
20
249.63579221118354
10
177.32282347595785
20
249.63579221118354
42
0.19891236737943283
10
176.96927008536463
20
249.48934560177693
10
169.90860991358466
20
242.42868542999699
42
-0.19891236737965801
10
169.20150313239816
20
242.13579221118354
10
-42.970069742855031
20
242.13579221118354
42
-0.19891236737963192
10
-43.677176524041471
20
242.4286854299969
10
-50.737836695821429
20
249.48934560177665
42
0.19891236737962376
10
-51.091390086414719
20
249.6357922111834
10
-54.884283305227868
20
249.6357922111834
42
0.99999999999999989
10
-54.884283305227868
20
248.63579221118346
10
-51.091390086414648
20
248.63579221118334
42
-0.19891236737973636
10
-50.737836695821358
20
248.48934560177656
10
-46.091390086414421
20
243.84289899237012
42
-0.66817863791930343
10
-46.798496867601017
20
242.1357922111834
10
-56.884283305227896
20
242.13579221118349
42
-0.41421356237309503
10
-61.884283305227825
20
247.1357922111834
10
-61.884283305227896
20
267.13579221118357
42
-0.41421356237309503
10
-56.884283305227896
20
272.13579221118357
10
-46.798496867601017
20
272.13579221118357
42
-0.6681786379193172
10
-46.091390086414506
20
270.42868542999702
10
-50.737836695821358
20
265.78223882059041
42
-0.1989123673796841
10
-51.091390086414648
20
265.63579221118363
10
-54.884283305227868
20
265.63579221118351
42
0.99999999999999989
10
-54.884283305227868
20
264.63579221118357
10
-51.091390086414719
20
264.63579221118357
42
0.1989123673796814
10
-50.7378366958214
20
264.78223882059035
10
-43.677176524041542
20
271.84289899237012
42
-0.19891236737966261
10
-42.970069742855017
20
272.13579221118357
10
169.20150313239816
20
272.13579221118363
42
-0.19891236737965801
10
169.90860991358474
20
271.84289899237018
10
176.96927008536463
20
264.78223882059029
42
0.1989123673796688
10
177.32282347595785
20
264.63579221118363
10
181.11571669477129
20
264.63579221118368
42
0.99999999999999989
10
181.11571669477129
20
265.63579221118363
10
177.32282347595785
20
265.63579221118351
42
-0.19891236737976245
10
176.96927008536434
20
265.78223882059041
10
172.3228234759577
20
270.42868542999702
42
-0.66817863791933529
10
173.02993025714414
20
272.13579221118357
10
183.11571669477132
20
272.13579221118368
42
-0.41421356237309503
10
188.11571669477129
20
267.13579221118368
10
188.11571669477132
20
247.13579221118354
42
-0.41421356237309503
10
183.11571669477132
20
242.13579221118354
10
173.02993025714414
20
242.13579221118349
42
-0.66817863791929888
10
172.32282347595756
20
243.84289899237007
0
LWPOLYLINE
5
136
100
AcDbEntity
8
0
100
AcDbPolyline
90
8
70
1
43
0.0
10
134.08983534601606
20
210.86793225870287
42
-0.41421356237310641
10
132.68425181344963
20
211.02392883872383
10
130.80987138463155
20
213.36629900760465
42
-0.41421356237310891
10
130.96586796465255
20
214.77188254017119
10
135.65060830241441
20
218.52064339780748
42
-0.41421356237301704
10
137.05619183498084
20
218.36464681778659
10
138.93057226379892
20
216.02227664890549
42
-0.414213562373065
10
138.77457568377801
20
214.61669311633909
0
LWPOLYLINE
5
137
100
AcDbEntity
8
0
100
AcDbPolyline
90
8
70
1
43
0.0
10
172.20223739865145
20
163.23973882478941
42
-0.41421356237311779
10
170.79665386608502
20
163.39573540481044
10
168.92227343726691
20
165.73810557369131
42
-0.41421356237305607
10
169.07827001728779
20
167.1436891062578
10
173.7630103550498
20
170.89244996389399
42
-0.41421356237309503
10
175.16859388761628
20
170.73645338387303
10
177.04297431643425
20
168.39408321499212
42
-0.41421356237302032
10
176.88697773641331
20
166.98849968242564
0
LWPOLYLINE
5
138
100
AcDbEntity
8
0
100
AcDbPolyline
90
8
70
1
43
0.0
10
125.03073351815628
20
218.9878259816814
10
132.83863408109286
20
225.23576074440854
42
-0.41421356237309037
10
146.89446940675654
20
223.67579494419897
10
184.3820779831191
20
176.82839156657911
42
-0.41421356237309437
10
182.82211218290965
20
162.77255624091552
10
175.01421161997308
20
156.52462147818838
42
-0.4142135623730962
10
160.95837629430932
20
158.08458727839792
10
123.47076771794674
20
204.93199065601775
42
-0.41421356237309132
0
ARC
5
139
100
AcDbEntity
8
0
100
AcDbCircle
10
-79.365628492783898
20
166.6262126998289
30
0
40
88.977991258307298
210
0
220
0
230
1
100
AcDbArc
50
143.96470540709032
51
179.31337477301281
0
LINE
5
140
100
AcDbEntity
8
0
100
AcDbLine
10
-149.96503463386324
20
219.57893681659812
30
0
11
-128.88528002567381
21
197.22402453085243
31
0
0
LWPOLYLINE
5
141
100
AcDbEntity
8
0
100
AcDbPolyline
90
12
70
1
43
0.0
10
68.115715350721786
20
251.63579221118613
42
-0.41421356237332396
10
68.615715350721757
20
251.13579221118584
10
68.615715350719029
20
247.1357922111869
42
0.99999999999999989
10
70.615715350874737
20
247.13579221118547
10
70.615715350672787
20
265.13579221118613
42
0.41421356237301699
10
70.115715350672787
20
265.63579221117641
10
56.115720727067746
20
265.63579221118596
42
0.41421356237305862
10
55.615715350685662
20
265.13578683480387
10
55.615715350685591
20
247.13579221118573
42
0.99999999999999989
10
57.615715350719015
20
247.13579221118573
10
57.615715350719015
20
251.13579221128759
42
-0.41421356237307422
10
58.11571535061713
20
251.63579221118573
0
LWPOLYLINE
5
142
100
AcDbEntity
8
0
100
AcDbPolyline
90
12
70
1
43
0.0
10
-127.18284019489718
20
230.2778994991759
10
-129.92732229619656
20
233.18785104441639
42
0.41421356237312451
10
-130.63412650201417
20
233.20853472490904
10
-141.91018873982023
20
222.5736665823739
42
0.41421356237310264
10
-141.93087242031288
20
221.86686237655641
10
-139.18639031901333
20
218.95691083131609
42
0.99999999999999989
10
-138.45890243270338
20
219.64303135664082
10
-140.51726400867798
20
221.82549501557131
42
-0.41421356237300677
10
-140.49658032818544
20
222.53229922138866
10
-130.67549386299953
20
231.79492631327392
42
-0.41421356237316059
10
-129.96868965718198
20
231.77424263278135
10
-127.91032808120721
20
229.59177897385109
42
0.99999999999999989
0
LWPOLYLINE
5
143
100
AcDbEntity
8
0
100
AcDbPolyline
90
12
70
1
43
0.0
10
-126.12941665734814
20
205.84144519724157
10
-114.85335441954207
20
216.47631333977665
42
0.41421356237312451
10
-114.83267073904946
20
217.18311754559426
10
-117.57715284034882
20
220.09306909083446
42
0.99999999999999989
10
-118.3046407266591
20
219.40694856550945
10
-116.24283122134024
20
217.22082909577256
42
-0.3732377824525252
10
-116.21552166941326
20
216.56619674837839
10
-126.08804929636301
20
207.25505360887644
42
-0.41421356237307277
10
-126.79485350218042
20
207.27573728936903
10
-128.85321507815499
20
209.45820094829938
42
0.99999999999999989
10
-129.58070296446499
20
208.77208042297454
10
-126.83622086316566
20
205.86212887773431
42
0.414213562373143
0
ARC
5
144
100
AcDbEntity
8
0
100
AcDbCircle
10
-126.70262223524391
20
199.28218025204768
30
0
40
3.0000000004688223
210
0
220
0
230
1
100
AcDbArc
50
223.31838992233645
51
313.3104677292331
0
LINE
5
145
100
AcDbEntity
8
0
100
AcDbLine
10
-124.644768326221
20
197.0992379046798
30
0
11
-107.183204210032
21
213.56476825151844
31
0
0
ARC
5
146
100
AcDbEntity
8
0
100
AcDbCircle
10
-109.24135993117781
20
215.74742604203499
30
0
40
3.0000000004979741
210
-0
220
0
230
1
100
AcDbArc
50
-46.681610079485729
51
43.318389919728219
0
LINE
5
147
100
AcDbEntity
8
0
100
AcDbLine
10
-107.05870214063303
20
217.80558176315085
30
0
11
-128.14057490821435
21
240.16274033998661
31
0
0
ARC
5
148
100
AcDbEntity
8
0
100
AcDbCircle
10
-75.023704624459413
20
259.50276816738614
30
0
40
4.000000000000016
210
0
220
0
230
1
100
AcDbArc
50
-92.676594930455806
51
73.830813618137284
0
LINE
5
149
100
AcDbEntity
8
0
100
AcDbLine
10
-73.909806141871712
20
263.34454251923046
30
0
11
-121.81268466545478
21
277.23368300959299
31
0
0
ARC
5
150
100
AcDbEntity
8
0
100
AcDbCircle
10
-136.35833791892298
20
227.06652822161857
30
0
40
52.233317414182267
210
0
220
-0
230
1
100
AcDbArc
50
73.830813616511634
51
192.80596621028738
0
LINE
5
151
100
AcDbEntity
8
0
100
AcDbLine
10
-187.29241837776095
20
215.4890113935877
30
0
11
-176.23744851524356
21
166.85382211930806
31
0
0
ARC
5
152
100
AcDbEntity
8
0
100
AcDbCircle
10
-172.33694339930548
20
167.74042227751931
30
0
40
3.9999999999999987
210
0
220
0
230
1
100
AcDbArc
50
192.80596625843009
51
359.31337477302287
0
ARC
5
153
100
AcDbEntity
8
0
100
AcDbCircle
10
-150.988860381764
20
219.64436492926595
30
0
40
0.74999999998484945
210
0
220
0
230
1
100
AcDbArc
50
133.31838992210626
51
243.96038322283019
0
LINE
5
154
100
AcDbEntity
8
0
100
AcDbLine
10
-151.50339931196982
20
220.19002937677919
30
0
11
-148.81145470417113
21
222.72842143249937
31
0
0
ARC
5
155
100
AcDbEntity
8
0
100
AcDbCircle
10
-148.29691577395357
20
222.18275698497376
30
0
40
0.74999999998500111
210
0
220
0
230
1
100
AcDbArc
50
-46.681610077928724
51
133.3183899221107
0
LINE
5
156
100
AcDbEntity
8
0
100
AcDbLine
10
-147.78237684374798
20
221.63709253746009
30
0
11
-149.96503463386324
21
219.57893681659812
31
0
0
LINE
5
157
100
AcDbEntity
8
0
100
AcDbLine
10
-128.14057490821435
20
240.16274033998661
30
0
11
-130.32323269843201
21
238.10458461921274
31
0
0
ARC
5
158
100
AcDbEntity
8
0
100
AcDbCircle
10
-130.83565344961181
20
238.64800275475093
30
0
40
0.74691250911750151
210
0
220
0
230
1
100
AcDbArc
50
133.31838991929769
51
313.31838991930277
0
LINE
5
159
100
AcDbEntity
8
0
100
AcDbLine
10
-131.34807420079375
20
239.19142089029148
30
0
11
-128.65612959286554
21
241.72981294587512
31
0
0
ARC
5
160
100
AcDbEntity
8
0
100
AcDbCircle
10
-128.14370884169276
20
241.18639481034361
30
0
40
0.74691250910465889
210
0
220
-0
230
1
100
AcDbArc
50
23.680304841721917
51
133.31838991926253
0
ARC
5
161
100
AcDbEntity
8
0
100
AcDbCircle
10
-79.365628492783898
20
166.6262126998289
30
0
40
88.977991258128185
210
0
220
-0
230
1
100
AcDbArc
50
87.323405069527269
51
122.71879463093366
0
ENDSEC
0
SECTION
2
OBJECTS
0
DICTIONARY
5
C
100
AcDbDictionary
3
ACAD_GROUP
350
D
3
ACAD_MLINESTYLE
350
17
0
DICTIONARY
5
D
100
AcDbDictionary
0
DICTIONARY
5
1A
330
C
100
AcDbDictionary
0
DICTIONARY
5
17
100
AcDbDictionary
0
ENDSEC
0
EOF
