0
SECTION
2
HEADER
9
$INSUNITS
70
4
9
$ACADVER
1
AC1014
9
$HANDSEED
5
FFFF
0
ENDSEC
0
SECTION
2
TABLES
0
TABLE
2
VPORT
5
8
100
AcDbSymbolTable
0
ENDTAB
0
TABLE
2
LTYPE
5
5
100
AcDbSymbolTable
0
LTYPE
5
14
100
AcDbSymbolTableRecord
100
AcDbLinetypeTableRecord
2
BYBLOCK
70
0
0
LTYPE
5
15
100
AcDbSymbolTableRecord
100
AcDbLinetypeTableRecord
2
BYLAYER
70
0
0
ENDTAB
0
TABLE
2
LAYER
5
2
100
AcDbSymbolTable
70
2
0
LAYER
5
50
100
AcDbSymbolTableRecord
100
AcDbLayerTableRecord
2
0
70
0
6
CONTINUOUS
0
ENDTAB
0
TABLE
2
STYLE
5
3
100
AcDbSymbolTable
70
1
0
STYLE
5
11
100
AcDbSymbolTableRecord
100
AcDbTextStyleTableRecord
2
STANDARD
70
0
0
ENDTAB
0
TABLE
2
VIEW
5
6
100
AcDbSymbolTable
70
0
0
ENDTAB
0
TABLE
2
UCS
5
7
100
AcDbSymbolTable
70
0
0
ENDTAB
0
TABLE
2
APPID
5
9
100
AcDbSymbolTable
70
2
0
APPID
5
12
100
AcDbSymbolTableRecord
100
AcDbRegAppTableRecord
2
ACAD
70
0
0
ENDTAB
0
TABLE
2
DIMSTYLE
5
A
100
AcDbSymbolTable
70
1
0
ENDTAB
0
TABLE
2
BLOCK_RECORD
5
1
100
AcDbSymbolTable
70
1
0
BLOCK_RECORD
5
1F
100
AcDbSymbolTableRecord
100
AcDbBlockTableRecord
2
*MODEL_SPACE
0
BLOCK_RECORD
5
1B
100
AcDbSymbolTableRecord
100
AcDbBlockTableRecord
2
*PAPER_SPACE
0
ENDTAB
0
ENDSEC
0
SECTION
2
BLOCKS
0
BLOCK
5
20
100
AcDbEntity
100
AcDbBlockBegin
2
*MODEL_SPACE
0
ENDBLK
5
21
100
AcDbEntity
100
AcDbBlockEnd
0
BLOCK
5
1C
100
AcDbEntity
100
AcDbBlockBegin
2
*PAPER_SPACE
0
ENDBLK
5
1D
100
AcDbEntity
100
AcDbBlockEnd
0
ENDSEC
0
SECTION
2
ENTITIES
0
LWPOLYLINE
5
100
100
AcDbEntity
8
0
100
AcDbPolyline
90
8
70
1
43
0.0
10
-147
20
7.7370094031060788
42
-0.42625039789448138
10
-147.52045327905589
20
7.2374265282511274
10
-161.50734201871981
20
7.2374265282519898
42
-0.40991906388670363
10
-162.00000000000003
20
7.7373726201069903
10
-162.00000000000006
20
21.737372620106896
42
-0.4142135778940047
10
-161.49999997350415
20
22.237372620106903
10
-147.52779904832241
20
22.237374354552575
42
-0.43060325514865294
10
-147.00000000000003
20
21.738145161521771
0
ARC
5
101
100
AcDbEntity
8
0
100
AcDbCircle
10
117.50000000000007
20
7.7374265282511274
30
0
40
0.50000000000004263
210
0
220
0
230
1
100
AcDbArc
50
180
51
270
0
LINE
5
102
100
AcDbEntity
8
0
100
AcDbLine
10
117.00000000000003
20
7.7374265282511345
30
0
11
116.99999999999946
21
26.737426528243912
31
0
0
ARC
5
103
100
AcDbEntity
8
0
100
AcDbCircle
10
117.49999999999949
20
26.73742652825112
30
0
40
0.49999999999998934
210
0
220
-0
230
1
100
AcDbArc
50
0
51
180
0
LINE
5
104
100
AcDbEntity
8
0
100
AcDbLine
10
117.99999999999947
20
26.737426529637162
30
0
11
117.99999999999947
21
22.59241382248814
31
0
0
ARC
5
105
100
AcDbEntity
8
0
100
AcDbCircle
10
118.47850947239448
20
22.737426528235737
30
0
40
0.49999999999997691
210
0
220
0
230
1
100
AcDbArc
50
196.85947737750934
51
270.00044787277795
0
LINE
5
106
100
AcDbEntity
8
0
100
AcDbLine
10
118.47851338082178
20
22.237426528251035
30
0
11
130.49997589233618
21
22.237426528251056
31
0
0
ARC
5
107
100
AcDbEntity
8
0
100
AcDbCircle
10
130.50000163700892
20
22.737426527588287
30
0
40
0.50000000000001876
210
0
220
0
230
1
100
AcDbArc
50
-90.002950122187258
51
0.14661497691911132
0
LINE
5
108
100
AcDbEntity
8
0
100
AcDbLine
10
130.99999999999952
20
22.738705983231959
30
0
11
131.00000000000279
21
26.737426042027082
31
0
0
ARC
5
109
100
AcDbEntity
8
0
100
AcDbCircle
10
131.50000000000256
20
26.737426528251103
30
0
40
0.50000000000000722
210
0
220
-0
230
1
100
AcDbArc
50
0
51
180.00005571159261
0
LINE
5
110
100
AcDbEntity
8
0
100
AcDbLine
10
132.00000000000256
20
26.737426533234533
30
0
11
132.00000000000006
21
7.7374265282511345
31
0
0
ARC
5
111
100
AcDbEntity
8
0
100
AcDbCircle
10
131.50000000000009
20
7.7374265282511274
30
0
40
0.50000000000003375
210
0
220
0
230
1
100
AcDbArc
50
-90
51
0
0
LINE
5
112
100
AcDbEntity
8
0
100
AcDbLine
10
131.50000000000009
20
7.2374265282510937
30
0
11
117.50000000000007
21
7.2374265282510919
31
0
0
LWPOLYLINE
5
113
100
AcDbEntity
8
0
100
AcDbPolyline
90
8
70
1
43
0.0
10
179.00000000000006
20
11.000000000000039
10
181.99999999999994
20
11.000000000000016
42
0.41421356237307094
10
182.99999999999997
20
12.000000000000075
10
183
20
17.999999999999968
42
0.41421356237313534
10
181.99999999999994
20
19.000000000000007
10
179.00000000000009
20
19.000000000000018
42
0.41421356237312495
10
177.99999999999997
20
17.999999999999968
10
178
20
12.000000000000071
42
0.41421356237310542
0
LWPOLYLINE
5
114
100
AcDbEntity
8
0
100
AcDbPolyline
90
8
70
1
43
0.0
10
-183
20
17.999999999999968
42
-0.41421356237312495
10
-182
20
19.000000000000007
10
-179.00000000000009
20
19.000000000000014
42
-0.41421356237312495
10
-178
20
17.999999999999968
10
-177.99999999999997
20
12.000000000000071
42
-0.41421356237310542
10
-179.00000000000006
20
11.000000000000039
10
-182
20
11.000000000000014
42
-0.41421356237304624
10
-183
20
12.000000000000075
0
LWPOLYLINE
5
115
100
AcDbEntity
8
0
100
AcDbPolyline
90
12
70
1
43
0.0
10
-173
20
25.000000000000018
10
-173
20
21.500000000000018
10
-171
20
21.500000000000018
10
-171
20
23.000000000000011
10
-169.00000000000003
20
23.000000000000011
10
-169.00000000000003
20
7.0000000000000151
10
-171
20
7.0000000000000187
10
-171
20
8.500000000000016
10
-173
20
8.500000000000016
10
-173
20
5.0000000000000178
10
-167.00000000000003
20
5.0000000000000178
10
-167.00000000000003
20
25.000000000000014
0
LWPOLYLINE
5
116
100
AcDbEntity
8
0
100
AcDbPolyline
90
12
70
1
43
0.0
10
167.00000000000003
20
25.000000000000014
10
167.00000000000003
20
5.0000000000000178
10
172.99999999999997
20
5.0000000000000178
10
172.99999999999997
20
8.500000000000016
10
171
20
8.500000000000016
10
171
20
7.0000000000000187
10
169
20
7.0000000000000151
10
169
20
23.000000000000011
10
171
20
23.000000000000011
10
171
20
21.500000000000018
10
172.99999999999997
20
21.500000000000018
10
172.99999999999997
20
25.000000000000018
0
ARC
5
117
100
AcDbEntity
8
0
100
AcDbCircle
10
-131.50004257034939
20
7.7374265282510013
30
0
40
0.5000000000000413
210
0
220
0
230
1
100
AcDbArc
50
179.25233109870183
51
270.00004677512572
0
LINE
5
118
100
AcDbEntity
8
0
100
AcDbLine
10
-132.00000000000003
20
7.7439509851003052
30
0
11
-132.00000000000003
21
26.737421895872082
31
0
0
ARC
5
119
100
AcDbEntity
8
0
100
AcDbCircle
10
-131.4999999999267
20
26.737426528251124
30
0
40
0.50000000009652568
210
0
220
-0
230
1
100
AcDbArc
50
0.00052785310882477927
51
180.00053055283232
0
LINE
5
120
100
AcDbEntity
8
0
100
AcDbLine
10
-130.99999999985138
20
26.737431134638449
30
0
11
-130.99999999985138
21
22.737346689446909
31
0
0
ARC
5
121
100
AcDbEntity
8
0
100
AcDbCircle
10
-130.5000000038637
20
22.737346689446909
30
0
40
0.49999999598767886
210
0
220
0
230
1
100
AcDbArc
50
180
51
271.02391856863522
0
LINE
5
122
100
AcDbEntity
8
0
100
AcDbLine
10
-130.49106510431437
20
22.237426528251135
30
0
11
-118.50078113320075
21
22.237426528251135
31
0
0
ARC
5
123
100
AcDbEntity
8
0
100
AcDbCircle
10
-118.50000122531704
20
22.737427146093868
30
0
40
0.50000122609791631
210
0
220
0
230
1
100
AcDbArc
50
-90.089370677376976
51
0.0028814317938334485
0
LINE
5
124
100
AcDbEntity
8
0
100
AcDbLine
10
-117.9999999998514
20
22.73745229139109
30
0
11
-117.9999999998514
21
26.737426539953336
31
0
0
ARC
5
125
100
AcDbEntity
8
0
100
AcDbCircle
10
-117.49999999985138
20
26.737426528251163
30
0
40
0.49999999999999778
210
0
220
-0
230
1
100
AcDbArc
50
0.0013970596388908872
51
179.99999879258175
0
LINE
5
126
100
AcDbEntity
8
0
100
AcDbLine
10
-117.00000000000003
20
26.737438719897249
30
0
11
-117.00000000000006
21
7.9017978122059063
31
0
0
ARC
5
127
100
AcDbEntity
8
0
100
AcDbCircle
10
-117.4722102732712
20
7.7374279310925873
30
0
40
0.50000000000005151
210
0
220
0
230
1
100
AcDbArc
50
-89.999999784434735
51
19.192302034225989
0
LINE
5
128
100
AcDbEntity
8
0
100
AcDbLine
10
-117.47221027139004
20
7.2374279310925358
30
0
11
-131.50004216215942
21
7.237426528251131
31
0
0
LWPOLYLINE
5
129
100
AcDbEntity
8
0
100
AcDbPolyline
90
8
70
1
43
0.0
10
162
20
7.7410641772195987
42
-0.41331847544366851
10
161.50520647887765
20
7.2374265282510919
10
147.49408019400559
20
7.2374265282510937
42
-0.38875975820551417
10
147.00000000000006
20
7.6979707522619556
10
147.00000000000006
20
21.736996651207896
42
-0.41114790094630715
10
147.49429844839375
20
22.237426528251092
10
161.50498822448952
20
22.237426528251113
42
-0.40713636311512225
10
162.00000000000003
20
21.744625519834038
0
LWPOLYLINE
5
130
100
AcDbEntity
8
0
100
AcDbPolyline
90
13
70
1
43
0.0
10
-57.328775993097274
20
240.73742652825115
10
57.328478224014134
20
240.73742652825109
42
-0.27817927792600894
10
119.23880764398163
20
203.40409319491778
42
0.15107386912345125
10
152.6601365048968
20
169.98276433400264
42
-0.27817927792600822
10
189.99346983823014
20
108.07243491403513
10
189.99346983823011
20
20.473835976905086
10
190.00593930833747
20
10.473843751292378
42
-0.34714886664330502
10
182.3393651974684
20
0.73742652825110611
10
-179.99377303933335
20
0.73742652825113275
42
-0.41390831063148942
10
-189.99376760731332
20
10.727003459126045
10
-189.99376760731332
20
108.07243491403517
42
-0.27817927792600788
10
-152.66043427397994
20
169.98276433400261
42
0.15107386912345153
10
-119.23910541306478
20
203.40409319491778
42
-0.27817927792600822
0
LWPOLYLINE
5
131
100
AcDbEntity
8
0
100
AcDbPolyline
90
12
70
1
43
0.0
10
-103.92554903134146
20
269.70665975665349
42
-0.41421356237309503
10
-103.42554903134149
20
270.20665975665344
10
-89.925549031341561
20
270.20665975665344
42
-0.41421356237309503
10
-89.425549031341589
20
269.70665975665349
10
-89.425549031341589
20
266.70665975665349
42
0.99999999999999989
10
-88.425549031341646
20
266.70665975665349
10
-88.425549031341504
20
270.70665975665344
42
0.41421356237312623
10
-88.925549031341617
20
271.20665975665355
10
-104.42554903134157
20
271.20665975665355
42
0.41421356237312623
10
-104.92554903134169
20
270.70665975665344
10
-104.92554903134155
20
266.70665975665349
42
0.99999999999999989
10
-103.92554903134146
20
266.70665975665349
0
LWPOLYLINE
5
132
100
AcDbEntity
8
0
100
AcDbPolyline
90
12
70
1
43
0.0
10
102.07445096865727
20
271.20665975665366
42
-0.41421356237312623
10
102.57445096865739
20
270.70665975665355
10
102.57445096865725
20
266.70665975665349
42
-0.99999999999999989
10
101.5744509686573
20
266.70665975665349
10
101.57445096865716
20
269.70665975665361
42
0.41421356237309503
10
101.07445096865719
20
270.20665975665361
10
87.574450968657601
20
270.20665975665361
42
0.4142135623730846
10
87.074450968657658
20
269.70665975665361
10
87.074450968657658
20
266.70665975665349
42
-0.99999999999999989
10
86.074450968657715
20
266.70665975665349
10
86.074450968657715
20
270.70665975665355
42
-0.41421356237309503
10
86.574450968657686
20
271.20665975665355
0
LWPOLYLINE
5
133
100
AcDbEntity
8
0
100
AcDbPolyline
90
12
70
1
43
0.0
10
-89.425549031341589
20
252.70665975665315
42
-0.99999999999999989
10
-88.425549031341646
20
252.70665975665315
10
-88.425549031341646
20
248.7066597566531
42
-0.41421356237309503
10
-88.925549031341617
20
248.20665975665315
10
-104.42554903134157
20
248.20665975665315
42
-0.41421356237309503
10
-104.92554903134155
20
248.7066597566531
10
-104.9255490313414
20
252.70665975665315
42
-0.99999999999999989
10
-103.92554903134146
20
252.70665975665315
10
-103.92345385743751
20
250.70477546984367
42
0.39245762660600148
10
-103.46032057075321
20
250.20665975665312
10
-89.934766693284502
20
249.20665975665315
42
0.41434668260303209
10
-89.434555397473261
20
249.70667565568652
0
LWPOLYLINE
5
134
100
AcDbEntity
8
0
100
AcDbPolyline
90
12
70
1
43
0.0
10
86.074450968657686
20
252.70665975665315
10
86.074450968657715
20
248.70665975665327
42
0.41421356237309503
10
86.574450968657686
20
248.20665975665315
10
102.07445096865727
20
248.20665975665315
42
0.41421356237312623
10
102.57445096865737
20
248.70665975665327
10
102.57445096865739
20
252.70665975665315
42
0.99999999999999989
10
101.57445096865716
20
252.70665975665315
10
101.57314972808945
20
250.70497573254602
42
-0.3925876816137725
10
101.10998922665897
20
250.20665975665312
10
87.574450968657629
20
249.20665975665321
42
-0.41421356237309503
10
87.074450968657629
20
249.70665975665321
10
87.074450968657658
20
252.70665975665315
42
0.99999999999999989
0
LWPOLYLINE
5
135
100
AcDbEntity
8
0
100
AcDbPolyline
90
48
70
1
43
0.0
10
112.67800435925102
20
251.0602131472466
42
-0.19891236737960571
10
113.0315577498442
20
251.20665975665327
10
116.82445096865764
20
251.20665975665327
42
0.99999999999999989
10
116.82445096865764
20
252.20665975665332
10
113.0315577498442
20
252.20665975665332
42
0.19891236737941981
10
112.67800435925098
20
252.06021314724671
10
105.61734418747102
20
244.99955297546677
42
-0.19891236737965801
10
104.91023740628451
20
244.70665975665332
10
-107.26133546896867
20
244.70665975665332
42
-0.19891236737963192
10
-107.96844225015511
20
244.99955297546671
10
-115.02910242193506
20
252.06021314724643
42
0.19891236737960799
10
-115.38265581252836
20
252.20665975665321
10
-119.17554903134149
20
252.20665975665321
42
0.99999999999999989
10
-119.17554903134149
20
251.20665975665327
10
-115.38265581252828
20
251.20665975665315
42
-0.19891236737973636
10
-115.02910242193499
20
251.06021314724637
10
-110.38265581252804
20
246.4137665378399
42
-0.66817863791930343
10
-111.08976259371465
20
244.70665975665321
10
-121.17554903134152
20
244.70665975665327
42
-0.41421356237309503
10
-126.17554903134146
20
249.70665975665321
10
-126.17554903134152
20
269.70665975665332
42
-0.41421356237309503
10
-121.17554903134152
20
274.70665975665332
10
-111.08976259371465
20
274.70665975665338
42
-0.6681786379193172
10
-110.38265581252814
20
272.99955297546683
10
-115.02910242193499
20
268.35310636606016
42
-0.1989123673796841
10
-115.38265581252828
20
268.20665975665344
10
-119.17554903134149
20
268.20665975665327
42
0.99999999999999989
10
-119.17554903134149
20
267.20665975665332
10
-115.38265581252836
20
267.20665975665332
42
0.19891236737972334
10
-115.02910242193502
20
267.3531063660601
10
-107.96844225015518
20
274.41376653783993
42
-0.19891236737965801
10
-107.26133546896867
20
274.70665975665332
10
104.91023740628451
20
274.70665975665338
42
-0.19891236737965801
10
105.61734418747109
20
274.41376653783999
10
112.67800435925098
20
267.3531063660601
42
0.19891236737973184
10
113.0315577498442
20
267.20665975665338
10
116.82445096865764
20
267.20665975665349
42
0.99999999999999989
10
116.82445096865764
20
268.20665975665344
10
113.0315577498442
20
268.20665975665327
42
-0.19891236737976245
10
112.67800435925069
20
268.35310636606016
10
108.03155774984405
20
272.99955297546683
42
-0.66817863791933529
10
108.73866453103049
20
274.70665975665332
10
118.82445096865767
20
274.70665975665349
42
-0.41421356237309503
10
123.82445096865767
20
269.70665975665349
10
123.82445096865767
20
249.70665975665332
42
-0.41421356237309503
10
118.82445096865767
20
244.70665975665332
10
108.73866453103049
20
244.70665975665327
42
-0.66817863791929888
10
108.03155774984391
20
246.41376653783988
0
LWPOLYLINE
5
136
100
AcDbEntity
8
0
100
AcDbPolyline
90
8
70
1
43
0.0
10
162.95176437337381
20
261.13793159175918
42
-0.41421356237309503
10
161.95176437337378
20
262.13793159175918
10
161.95176437337369
20
265.13793159175907
42
-0.41421356237309503
10
162.95176437337386
20
266.13793159175913
10
168.95176437337375
20
266.13793159175918
42
-0.41421356237306384
10
169.95176437337381
20
265.13793159175918
10
169.95176437337378
20
262.13793159175918
42
-0.41421356237309503
10
168.95176437337375
20
261.13793159175913
0
LWPOLYLINE
5
137
100
AcDbEntity
8
0
100
AcDbPolyline
90
8
70
1
43
0.0
10
162.95176437337386
20
200.13793159175916
42
-0.41421356237309503
10
161.95176437337386
20
201.13793159175918
10
161.95176437337386
20
204.1379315917591
42
-0.41421356237304302
10
162.95176437337386
20
205.13793159175918
10
168.95176437337381
20
205.13793159175916
42
-0.41421356237306384
10
169.95176437337381
20
204.1379315917591
10
169.95176437337386
20
201.13793159175927
42
-0.41421356237303258
10
168.95176437337375
20
200.13793159175918
0
LWPOLYLINE
5
138
100
AcDbEntity
8
0
100
AcDbPolyline
90
8
70
1
43
0.0
10
160.95176437337386
20
273.13793159175907
10
170.95176437337383
20
273.13793159175918
42
-0.41421356237308982
10
180.95176437337381
20
263.13793159175918
10
180.95176437337375
20
203.13793159175916
42
-0.41421356237309503
10
170.95176437337383
20
193.13793159175924
10
160.95176437337386
20
193.13793159175916
42
-0.41421356237309503
10
150.95176437337386
20
203.13793159175916
10
150.95176437337389
20
263.13793159175918
42
-0.41421356237309193
0
ARC
5
139
100
AcDbEntity
8
0
100
AcDbCircle
10
-125.18192408145032
20
171.76387736120705
30
0
40
88.999999999999901
210
0
220
0
230
1
100
AcDbArc
50
162.19808525105708
51
198.47911775601744
0
LINE
5
140
100
AcDbEntity
8
0
100
AcDbLine
10
-208.59514564692694
20
198.27111215105907
30
0
11
-182.18743117225904
21
184.52342340134604
31
0
0
LWPOLYLINE
5
141
100
AcDbEntity
8
0
100
AcDbPolyline
90
12
70
1
43
0.0
10
3.8244496246081643
20
254.20665975665594
42
-0.41421356237332396
10
4.3244496246081363
20
253.70665975665563
10
4.3244496246054007
20
249.70665975665668
42
0.99999999999999989
10
6.3244496247611082
20
249.70665975665526
10
6.3244496245591595
20
267.70665975665588
42
0.4142135623729864
10
5.8244496245591479
20
268.20665975664616
10
-8.1755449990458864
20
268.20665975665577
42
0.41421356237305601
10
-8.6755503754279673
20
267.70665438027368
10
-8.6755503754280383
20
249.70665975665551
42
0.99999999999999989
10
-6.6755503753946144
20
249.70665975665551
10
-6.6755503753946144
20
253.70665975675738
42
-0.41421356237307422
10
-6.1755503754964991
20
254.20665975665554
0
LWPOLYLINE
5
142
100
AcDbEntity
8
0
100
AcDbPolyline
90
12
70
1
43
0.0
10
-191.57206912051146
20
216.02811363704802
10
-195.12007378313996
20
217.87518237263058
42
0.4142135623730766
10
-195.79445795791642
20
217.66256538174983
10
-202.95184930829828
20
203.91404731406467
42
0.41421356237304852
10
-202.7392323174175
20
203.23966313928827
10
-199.19122765478889
20
201.39259440370586
42
0.99999999999999989
10
-198.7294604708934
20
202.27959556936284
10
-201.39046396786483
20
203.66489712104982
42
-0.41421356237304852
10
-201.60308095874564
20
204.33928129582611
10
-195.36922397615496
20
216.31379703219693
42
-0.41421356237314161
10
-194.69483980137858
20
216.52641402307773
10
-192.03383630440703
20
215.14111247139098
42
0.99999999999999989
0
LWPOLYLINE
5
143
100
AcDbEntity
8
0
100
AcDbPolyline
90
12
70
1
43
0.0
10
-182.55082249818398
20
193.29340208446536
10
-175.39343114780212
20
207.04192015215051
42
0.41421356237320656
10
-175.60604813868295
20
207.71630432692703
10
-179.15405280131128
20
209.56337306250933
42
0.99999999999999989
10
-179.61581998520703
20
208.676371896852
10
-176.95035908281682
20
207.28874984816048
42
-0.37323778245253181
10
-176.70954762664888
20
206.67940662430422
10
-182.9760564799455
20
194.642170434018
42
-0.41421356237309503
10
-183.65044065472182
20
194.42955344313728
10
-186.31144415169319
20
195.81485499482415
42
0.99999999999999989
10
-186.77321133558877
20
194.92785382916711
10
-183.22520667296038
20
193.08078509358469
42
0.4142135623730781
0
ARC
5
144
100
AcDbEntity
8
0
100
AcDbCircle
10
-180.8021296205722
20
187.18442689831744
30
0
40
3.0000000000000027
210
0
220
0
230
1
100
AcDbArc
50
242.49880043598966
51
332.49880043598966
0
LINE
5
145
100
AcDbEntity
8
0
100
AcDbLine
10
-178.1411261236008
20
185.7991253466306
30
0
11
-167.05871371010605
21
207.08715332240163
31
0
0
ARC
5
146
100
AcDbEntity
8
0
100
AcDbCircle
10
-169.71971720707762
20
208.4724548740885
30
0
40
3.0000000000001603
210
-0
220
0
230
1
100
AcDbArc
50
-27.501199564009344
51
62.498800435986766
0
LINE
5
147
100
AcDbEntity
8
0
100
AcDbLine
10
-168.33441565539059
20
211.13345837105996
30
0
11
-194.74505168784813
21
224.88266806523782
31
0
0
ARC
5
148
100
AcDbEntity
8
0
100
AcDbCircle
10
-151.62411529991638
20
260.92558732443075
30
0
40
3.9999999999999911
210
0
220
0
230
1
100
AcDbArc
50
-73.481516884039138
51
93.011224124257609
0
LINE
5
149
100
AcDbEntity
8
0
100
AcDbLine
10
-151.83424163867687
20
264.9200643767818
30
0
11
-201.63977408259291
21
262.3000833266226
31
0
0
ARC
5
150
100
AcDbEntity
8
0
100
AcDbCircle
10
-198.89587514562348
20
210.13888638981609
30
0
40
52.233317406197877
210
0
220
0
230
1
100
AcDbArc
50
93.011224124257296
51
211.98637674772115
0
LINE
5
151
100
AcDbEntity
8
0
100
AcDbLine
10
-243.19882063319858
20
182.46997841748077
30
0
11
-216.77946744761198
21
140.16781369768884
31
0
0
ARC
5
152
100
AcDbEntity
8
0
100
AcDbCircle
10
-213.38677153720769
20
142.28668473187801
30
0
40
3.9999999999999774
210
0
220
0
230
1
100
AcDbArc
50
-148.01361310582448
51
18.479194924564787
0
LINE
5
153
100
AcDbEntity
8
0
100
AcDbLine
10
-209.92053077027325
20
198.9735913699385
30
0
11
-208.54034584372579
21
201.62476642387387
31
0
0
ARC
5
154
100
AcDbEntity
8
0
100
AcDbCircle
10
-207.87509496948289
20
201.27844103595214
30
0
40
0.74999999999999645
210
0
220
0
230
1
100
AcDbArc
50
-27.501199564009646
51
152.49880043599046
0
LINE
5
155
100
AcDbEntity
8
0
100
AcDbLine
10
-207.20984409524004
20
200.93211564803045
30
0
11
-208.59514564692694
21
198.27111215105907
31
0
0
LINE
5
156
100
AcDbEntity
8
0
100
AcDbLine
10
-194.74505168784813
20
224.88266806523782
30
0
11
-196.13035323953497
21
222.22166456826645
31
0
0
ARC
5
157
100
AcDbEntity
8
0
100
AcDbCircle
10
-196.79414333488293
20
222.56722948395574
30
0
40
0.74835312629629391
210
0
220
0
230
1
100
AcDbArc
50
152.49880043598594
51
332.4988004359908
0
LINE
5
158
100
AcDbEntity
8
0
100
AcDbLine
10
-197.45793343023087
20
222.91279439964509
30
0
11
-196.07263187854403
21
225.57379789661644
31
0
0
ARC
5
159
100
AcDbEntity
8
0
100
AcDbCircle
10
-125.18192408145032
20
171.76387736120705
30
0
40
88.999999999999758
210
0
220
0
230
1
100
AcDbArc
50
106.518483115961
51
142.7995156209212
0
ENDSEC
0
SECTION
2
OBJECTS
0
DICTIONARY
5
C
100
AcDbDictionary
3
ACAD_GROUP
350
D
3
ACAD_MLINESTYLE
350
17
0
DICTIONARY
5
D
100
AcDbDictionary
0
DICTIONARY
5
1A
330
C
100
AcDbDictionary
0
DICTIONARY
5
17
100
AcDbDictionary
0
ENDSEC
0
EOF
